<?xml version="1.0"?>
<svg xmlns="http://www.w3.org/2000/svg" xmlns:xlink="http://www.w3.org/1999/xlink" xmlns:svgjs="http://svgjs.com/svgjs" version="1.1" width="512" height="512" x="0" y="0" viewBox="0 0 512 512" style="enable-background:new 0 0 512 512" xml:space="preserve" class=""><g><path xmlns="http://www.w3.org/2000/svg" d="m318.462 183.914s13.168-23.1 53.554-42.356 75.993-6.2 83.578 10.2-16.647 27.956-9.062 44.36 31.816 4.851 39.4 21.255-5.269 52.562-45.655 71.817-77.2 3.453-77.2 3.453h.588s24.523 6.057 47.72 44.757 14.25 76.052-.994 85.474-29.163-13.8-44.407-4.374-1.325 32.642-16.569 42.064-52.029.337-75.227-38.363-17.233-63.6-17.233-63.6h-1.91s5.965 24.9-17.233 63.6-59.982 47.786-75.227 38.363-1.325-32.642-16.569-42.064-29.163 13.8-44.407 4.374-24.192-46.774-.994-85.474 47.72-44.757 47.72-44.757h.588s-36.814 15.8-77.2-3.453-53.24-55.413-45.655-71.817 31.816-4.851 39.4-21.255-16.647-27.956-9.062-44.36 43.193-29.457 83.578-10.2 53.554 42.356 53.554 42.356-17.846-18.122-17.846-63.426 26.77-72.488 44.616-72.488 17.846 27.183 35.692 27.183 17.846-27.183 35.692-27.183 44.616 27.183 44.616 72.488-17.846 63.426-17.846 63.426z" fill="#ff7f50" data-original="#ff9494" style="" class=""/><circle xmlns="http://www.w3.org/2000/svg" cx="256" cy="256" fill="#ff6f26" r="40" data-original="#eb423f" style="" class=""/><g xmlns="http://www.w3.org/2000/svg" fill="#ed6f6d"><path d="m256 304a48 48 0 1 1 48-48 48.055 48.055 0 0 1 -48 48zm0-80a32 32 0 1 0 32 32 32.036 32.036 0 0 0 -32-32z" fill="#ffdf9f" data-original="#ed6f6d" style="" class=""/><path d="m256 224a8 8 0 0 1 -8-8v-40a8 8 0 0 1 16 0v40a8 8 0 0 1 -8 8z" fill="#ffdf9f" data-original="#ed6f6d" style="" class=""/><circle cx="256" cy="160" r="16" fill="#ffdf9f" data-original="#ed6f6d" style="" class=""/><circle cx="352" cy="232" r="16" fill="#ffdf9f" data-original="#ed6f6d" style="" class=""/><circle cx="160" cy="232" r="16" fill="#ffdf9f" data-original="#ed6f6d" style="" class=""/><path d="m256 328a8 8 0 0 1 -8-8v-24a8 8 0 0 1 16 0v24a8 8 0 0 1 -8 8z" fill="#ffdf9f" data-original="#ed6f6d" style="" class=""/><path d="m320 280a7.988 7.988 0 0 1 -2.531-.413l-24-8a8 8 0 1 1 5.06-15.178l24 8a8 8 0 0 1 -2.529 15.591z" fill="#ffdf9f" data-original="#ed6f6d" style="" class=""/><path d="m192 280a8 8 0 0 1 -2.529-15.591l24-8a8 8 0 0 1 5.06 15.178l-24 8a7.988 7.988 0 0 1 -2.531.413z" fill="#ffdf9f" data-original="#ed6f6d" style="" class=""/><path d="m280 232a8 8 0 0 1 -5.657-13.657l16-16a8 8 0 0 1 11.314 11.314l-16 16a7.974 7.974 0 0 1 -5.657 2.343z" fill="#ffdf9f" data-original="#ed6f6d" style="" class=""/><path d="m232 232a7.976 7.976 0 0 1 -5.657-2.343l-16-16a8 8 0 0 1 11.314-11.314l16 16a8 8 0 0 1 -5.657 13.657z" fill="#ffdf9f" data-original="#ed6f6d" style="" class=""/><path d="m328 336a7.974 7.974 0 0 1 -5.657-2.343l-40-40a8 8 0 0 1 11.314-11.314l40 40a8 8 0 0 1 -5.657 13.657z" fill="#ffdf9f" data-original="#ed6f6d" style="" class=""/><path d="m184 336a8 8 0 0 1 -5.657-13.657l40-40a8 8 0 1 1 11.314 11.314l-40 40a7.976 7.976 0 0 1 -5.657 2.343z" fill="#ffdf9f" data-original="#ed6f6d" style="" class=""/><circle cx="328" cy="328" r="16" fill="#ffdf9f" data-original="#ed6f6d" style="" class=""/><circle cx="184" cy="328" r="16" fill="#ffdf9f" data-original="#ed6f6d" style="" class=""/><path d="m295.99 248a8 8 0 0 1 -1.122-15.92l56-8a8 8 0 1 1 2.264 15.838l-56 8a7.914 7.914 0 0 1 -1.142.082z" fill="#ffdf9f" data-original="#ed6f6d" style="" class=""/><path d="m216.011 248a8 8 0 0 0 1.122-15.92l-56-8a8 8 0 1 0 -2.263 15.838l56 8a7.89 7.89 0 0 0 1.141.082z" fill="#ffdf9f" data-original="#ed6f6d" style="" class=""/></g></g></svg>
