<?xml version="1.0"?>
<svg xmlns="http://www.w3.org/2000/svg" xmlns:xlink="http://www.w3.org/1999/xlink" xmlns:svgjs="http://svgjs.com/svgjs" version="1.1" width="512" height="512" x="0" y="0" viewBox="0 0 512 512" style="enable-background:new 0 0 512 512" xml:space="preserve" class=""><g><g xmlns="http://www.w3.org/2000/svg"><path d="m69.469 221.594 97.026 42.695c5.995 2.638 10.489 7.828 12.242 14.138l27.375 98.507c10.321 37.138 30.817 62.766 48.935 62.766l7.766-29.409-39.341-141.565c-5.254-18.904 6.382-29.608 18.397-14.237l46.763 59.823 17.403 62.622c10.321 37.138 30.656 62.766 48.935 62.766l7.766-29.41-10.184-36.645s34.222 52.766 58.935 52.766l7.766-29.41-1.718-6.18s2.956-30.997 15.254-30.997l12.508-25.418v-107.582c0-11.501-6.796-21.917-17.323-26.549l-339.365-149.334c-15.232-6.703-31.691-10.164-48.332-10.164h-12.777l-10 101.169c0 34.505 20.387 65.75 51.969 79.648z" fill="#ffcdbe" data-original="#ffcdbe" style="" class=""/><path d="m354.971 439.7-6.902 26.137c-18.724-3.321-38.602-30.575-52.033-78.904l-17.403-62.622-46.763-59.823c-3.232-4.134-9.802-.819-8.397 4.237l-2.331-8.386c-5.254-18.904 18.712-31.221 30.728-15.85l46.763 59.823 17.403 62.622c10.32 37.138 24.449 61.814 38.935 72.766zm17.582-86.054-21.094-75.902-55.899-71.588c-7.583-9.711-23.132-5.235-24.392 7.021l-.668 6.499 60.96 78.068 21.094 75.902c13.431 48.329 33.308 75.583 52.033 78.904l6.902-26.137c-14.487-10.952-28.615-35.629-38.936-72.767zm40.745-110.534c0-7.422-4.386-14.143-11.179-17.133 0 0-17.145-7.544-26.672-11.737-30.27-13.32-54.024-38.865-61.563-64.171 0 20.052 6.703 39.528 19.044 55.333l51.334 65.741 33.274 119.678 15.254-30.997c-6.436-9.079-19.492-34.691-19.492-93.08 0-7.884 0-23.634 0-23.634zm-405.798-91.165c0 34.505 20.387 65.75 51.969 79.647l106.497 46.863 30.146 108.477c13.431 48.329 33.308 75.583 52.033 78.904l6.902-26.137c-14.486-10.951-28.614-35.628-38.935-72.766l-27.375-98.507c-1.754-6.31-6.247-11.5-12.242-14.138l-97.026-42.695c-31.582-13.899-51.969-45.144-51.969-79.648v-91.169h-12.5c-4.142 0-7.5 3.358-7.5 7.5z" fill="#ebae9d" data-original="#ebae9d" style="" class=""/><path d="m262.233 410.454c-4.862 1.399-9.06 3.984-12.385 7.345l7.18 48.828c1.668 6.003 13.333 3.909 21.868 1.534l-16.082-57.871c-.195.054-.389.109-.581.164z" fill="#fda47f" data-original="#e2a5cf" style="" class=""/><path d="m262.028 461.627-12.18-43.828c-7.025 7.101-10.138 17.683-7.276 27.982l5.573 20.056c3.636 13.085 17.392 15.24 28.477 12.156 2.568-.715 4.067-3.382 3.353-5.949l-1.079-3.883c-8.536 2.375-15.2-.531-16.868-6.534z" fill="#ff7f50" data-original="#d273b3" style="" class=""/><path d="m362.156 410.454c-4.862 1.399-9.06 3.984-12.385 7.345l7.18 48.828c1.668 6.003 13.333 3.909 21.868 1.534l-16.082-57.871c-.195.054-.389.109-.581.164z" fill="#fda47f" data-original="#e2a5cf" style="" class=""/><path d="m361.951 461.627-12.18-43.828c-7.025 7.101-10.138 17.683-7.276 27.982l5.573 20.056c3.636 13.085 17.392 15.24 28.477 12.156 2.568-.715 4.067-3.382 3.353-5.949l-1.079-3.883c-8.535 2.375-15.2-.531-16.868-6.534z" fill="#ff7f50" data-original="#d273b3" style="" class=""/><path d="m418.673 397.167c-4.862 1.399-9.06 3.984-12.385 7.345l7.18 48.828c1.668 6.003 13.333 3.909 21.868 1.534l-16.082-57.871c-.195.054-.388.108-.581.164z" fill="#fda47f" data-original="#e2a5cf" style="" class=""/><path d="m418.468 448.339-12.18-43.828c-7.025 7.101-10.138 17.683-7.276 27.982l5.573 20.056c3.636 13.085 17.392 15.24 28.477 12.156 2.568-.715 4.067-3.382 3.353-5.949l-1.079-3.883c-8.535 2.375-15.2-.531-16.868-6.534z" fill="#ff7f50" data-original="#d273b3" style="" class=""/><path d="m444.694 334.41c-5.059.046-9.796 1.412-13.899 3.761l-6.156 48.967c0 6.23 11.799 7.336 20.659 7.333v-60.064c-.202.001-.404.002-.604.003z" fill="#fda47f" data-original="#e2a5cf" style="" class=""/><path d="m430.795 383.66v-45.489c-8.67 4.961-14.503 14.323-14.503 25.012v20.816c0 13.581 12.676 19.341 24.182 19.337 2.665-.001 4.824-2.169 4.824-4.834v-4.03c-8.86.002-14.503-4.582-14.503-10.812z" fill="#ff7f50" data-original="#d273b3" style="" class=""/><g fill="#d3effd"><circle cx="371.775" cy="90.543" r="15" fill="#6de5cf" data-original="#d3effd" style="" class=""/><circle cx="107.405" cy="364.52" r="15" fill="#6de5cf" data-original="#d3effd" style="" class=""/><path d="m27.5 371.907c-4.143 0-7.5-3.357-7.5-7.5v-22.5h-12.5c-4.143 0-7.5-3.357-7.5-7.5s3.357-7.5 7.5-7.5h12.5v-22.5c0-4.143 3.357-7.5 7.5-7.5s7.5 3.357 7.5 7.5v22.5h12.5c4.143 0 7.5 3.357 7.5 7.5s-3.357 7.5-7.5 7.5h-12.5v22.5c0 4.143-3.357 7.5-7.5 7.5z" fill="#6de5cf" data-original="#d3effd" style="" class=""/></g><path d="m122.404 236.596c-4.143 0-7.5-3.357-7.5-7.5v-22.5h-12.5c-4.143 0-7.5-3.357-7.5-7.5s3.357-7.5 7.5-7.5h12.5v-22.5c0-4.143 3.357-7.5 7.5-7.5s7.5 3.357 7.5 7.5v22.5h12.5c4.143 0 7.5 3.357 7.5 7.5s-3.357 7.5-7.5 7.5h-12.5v22.5c0 4.142-3.357 7.5-7.5 7.5z" fill="#ffeee5" data-original="#ffeee5" style="" class=""/><path d="m484.5 107.764c-4.143 0-7.5-3.357-7.5-7.5v-22.5h-12.5c-4.143 0-7.5-3.357-7.5-7.5s3.357-7.5 7.5-7.5h12.5v-22.5c0-4.143 3.357-7.5 7.5-7.5s7.5 3.357 7.5 7.5v22.5h12.5c4.143 0 7.5 3.357 7.5 7.5s-3.357 7.5-7.5 7.5h-12.5v22.5c0 4.142-3.357 7.5-7.5 7.5z" fill="#6de5cf" data-original="#d3effd" style="" class=""/></g></g></svg>
