<?xml version="1.0"?>
<svg xmlns="http://www.w3.org/2000/svg" xmlns:xlink="http://www.w3.org/1999/xlink" xmlns:svgjs="http://svgjs.com/svgjs" version="1.1" width="512" height="512" x="0" y="0" viewBox="0 0 512 512" style="enable-background:new 0 0 512 512" xml:space="preserve" class=""><g><g xmlns="http://www.w3.org/2000/svg"><g><path d="m265.485 40.371c-32.228 7.998-50.306 31.642-64.075 52.539-18.457-16.901-63.562-41.004-96.777-36.885-50.691 6.287-88.239 39.965-83.866 75.223s49.011 58.743 99.701 52.456c33.215-4.119 71.522-34.833 85.291-55.73 18.457 16.901 45.233 39.36 78.448 35.24 50.691-6.287 81.341-38.927 76.968-74.185-4.373-35.257-46.159-60.95-95.69-48.658z" fill="#bdf4e3" data-original="#bdf4e3" style=""/><g><path d="m361.175 89.029c-3.92-31.611-37.916-55.526-80.602-51.279 17.305 1.147 28.766 5.933 29.595 12.62 1.338 10.789-24.419 17.811-60.075 29.168-19.607 6.245-32.751 14.449-39.876 21.259-2.226 2.128-3.35 8.235-6.076 7.295-8.924-2.608-49.36-18.614-73.693-15.596-37.136 4.606-68.326-.407-69.664-11.196-.377-3.038 1.443-7.46 4.358-10.193s7.77-6.139 11.167-8.3c-35.574 12.929-59.05 40.165-55.543 68.441 4.373 35.258 49.011 58.743 99.701 52.456 33.215-4.119 71.522-34.833 85.291-55.73 18.457 16.901 45.233 39.36 78.448 35.24 50.692-6.287 81.342-38.927 76.969-74.185z" fill="#78b491" data-original="#b1b7e3" style="" class=""/></g><path d="m206.997 109.421c-31.906-15.191-66.775-20.229-100.187-12.084-63.574 15.498-103.795 74.286-106.648 144.768-.948 23.423 2.231 48.136 10.051 72.983 14.282 45.374 41.589 83.348 75.075 109.326 6.747 5.235 20.521 13.933 29.729 18.766 27.016 14.179 75.46 32.387 152.673 43.359 16.977-3.791 33.432-11.102 48.64-19.372 57.03-31.009 95.454-83.178 117.174-143.388-.429 1.681-.986 3.491-1.505 5.214 5.319-18.668 9.249-37.257 10.212-56.713 5.135-103.677-61.677-188.907-149.229-190.366-31.086-.519-60.605 9.604-85.985 27.507" fill="#ffc7b6" data-original="#ffc7b6" style="" class=""/><path d="m292.985 81.913c-31.089-.518-60.608 9.605-85.988 27.508-31.905-15.192-66.775-20.229-100.187-12.084-63.574 15.498-103.795 74.286-106.648 144.768-.948 23.422 2.231 48.136 10.051 72.982 14.282 45.374 41.589 83.348 75.075 109.327 6.747 5.235 20.521 13.933 29.729 18.766 27.016 14.179 75.46 32.387 152.673 43.359 16.977-3.791 33.432-11.102 48.64-19.372 56.839-30.905 95.192-82.831 116.95-142.785 4.661-17.125 8.047-34.249 8.931-52.103 5.138-103.676-61.674-188.906-149.226-190.366zm100.888 174.254c-.739 14.64-3.547 28.681-7.409 42.725.061-.165.125-.329.185-.494-.356 1.379-.817 2.863-1.246 4.275.363-1.26.715-2.521 1.061-3.781-18.018 49.168-49.753 91.761-96.762 117.128-12.578 6.787-26.187 12.79-40.225 15.906-63.836-8.96-103.881-23.867-126.212-35.48-7.611-3.958-18.995-11.084-24.571-15.373-27.674-21.285-50.235-52.408-62.022-89.605-6.454-20.368-9.071-40.631-8.277-59.836 2.391-57.792 41.848-117.285 94.419-130.022 27.63-6.694 56.391-4.234 82.764 8.208l9.326 3.61c15.173-8.889 29.969-13.688 55.674-13.277 72.387 1.154 127.589 71.006 123.295 156.016z" fill="#fea38a" data-original="#ef95b6" style="" class=""/><g><path d="m325.071 286.366c-5.034 0-9.429-3.705-10.154-8.832-1.61-11.391-4.224-22.875-7.769-34.137-17.367-55.18-56.457-101.799-104.566-124.705-5.12-2.438-7.294-8.565-4.857-13.685 2.438-5.12 8.564-7.294 13.685-4.857 25.787 12.278 49.861 31.013 69.618 54.179 20.339 23.848 36.144 52.515 45.708 82.901 3.882 12.332 6.746 24.925 8.514 37.428.794 5.615-3.115 10.81-8.73 11.604-.486.07-.97.104-1.449.104z" fill="#dc9a88" data-original="#d07297" style="" class=""/></g><g><path d="" style="fill:none;stroke:#3c122c;stroke-width:20;stroke-linecap:round;stroke-linejoin:round;stroke-miterlimit:10" fill=""/></g><g><path d="m63.4 313.652c-4.241 0-8.208-2.647-9.69-6.875-11.827-33.75-12.359-68.822-1.459-96.224 2.097-5.269 8.069-7.841 13.336-5.746 5.269 2.096 7.841 8.067 5.746 13.336-8.962 22.531-8.305 53.126 1.758 81.842 1.875 5.352-.943 11.211-6.295 13.086-1.123.394-2.27.581-3.396.581z" fill="#ffffff" data-original="#ffffff" style=""/></g><g><path d="m78.389 187.751c-1.193 0-2.405-.21-3.589-.651-5.313-1.983-8.012-7.898-6.029-13.21 2.643-7.082 6.433-12.43 11.928-16.834 4.426-3.546 10.888-2.834 14.433 1.591 3.547 4.425 2.834 10.887-1.591 14.433-2.616 2.097-4.167 4.337-5.53 7.989-1.542 4.131-5.459 6.682-9.622 6.682z" fill="#ffffff" data-original="#ffffff" style=""/></g><g><path d="m136.089 200.684c-3.214 0-5.922-2.493-6.141-5.748l-.67-9.98c-.228-3.395 2.339-6.332 5.734-6.56 3.413-.224 6.332 2.339 6.56 5.734l.67 9.98c.228 3.395-2.339 6.332-5.734 6.56-.141.01-.28.014-.419.014z" fill="#dc9a88" data-original="#d07297" style="" class=""/></g><g><path d="m189.328 216.958c-3.215 0-5.923-2.494-6.141-5.748l-.67-9.98c-.228-3.395 2.339-6.332 5.734-6.559 3.4-.232 6.332 2.34 6.559 5.734l.67 9.98c.228 3.395-2.339 6.332-5.734 6.559-.14.009-.279.014-.418.014z" fill="#dc9a88" data-original="#d07297" style="" class=""/></g><g><path d="m159.529 243.715c-3.214 0-5.922-2.493-6.141-5.748l-.67-9.98c-.228-3.395 2.339-6.332 5.734-6.56 3.417-.229 6.332 2.339 6.56 5.734l.67 9.98c.228 3.395-2.339 6.332-5.734 6.56-.141.009-.281.014-.419.014z" fill="#dc9a88" data-original="#d07297" style="" class=""/></g></g><path d="m479.252 49.524 8.192 23.035c.351.986 1.045 1.768 1.921 2.163l20.466 9.221c2.891 1.303 2.891 5.909 0 7.212l-20.466 9.221c-.876.395-1.571 1.176-1.921 2.163l-8.192 23.035c-1.157 3.254-5.25 3.254-6.408 0l-8.192-23.035c-.351-.986-1.045-1.768-1.921-2.163l-20.466-9.221c-2.891-1.303-2.891-5.909 0-7.212l20.466-9.221c.876-.395 1.571-1.176 1.921-2.163l8.192-23.035c1.158-3.254 5.25-3.254 6.408 0z" fill="#ffc7b6" data-original="#ffc7b6" style="" class=""/><circle cx="410.947" cy="40.156" fill="#ffa585" r="14.694" data-original="#ffa585" style="" class=""/></g></g></svg>
