<?xml version="1.0"?>
<svg xmlns="http://www.w3.org/2000/svg" xmlns:xlink="http://www.w3.org/1999/xlink" xmlns:svgjs="http://svgjs.com/svgjs" version="1.1" width="512" height="512" x="0" y="0" viewBox="0 0 512 512" style="enable-background:new 0 0 512 512" xml:space="preserve" class=""><g transform="matrix(-1,0,0,1,512,0)"><g xmlns="http://www.w3.org/2000/svg"><path d="m366.273 457.183c10.258 9.914 25.887 15.678 37.454 6.699 11.046 12.194 28.339 16.85 37.454 6.698.677-3.785 1.115-7.546 1.318-11.29-.001-.003-.002-.006-.004-.01 0 0 42.844 8.42 60.07-7.634 4.391-9.941 1.002-22.21-7.34-27.816l-6.292-3.633c-52.187-30.13-95.524-73.467-125.654-125.654l-153.033-265.052c-1.34-2.32-3.816-3.75-6.495-3.75h-172.591l60.503 145.775-28.23 40.479c-24.289 32.733-14.73 79.313 20.488 99.834l214.445 124.958v8c0 11.864 21.301 16.658 30.454 5.698 7.141 13.287 26.428 16.28 37.453 6.698" fill="#d68b78" data-original="#c38778" style="" class=""/><path d="m366.273 457.183c-1.85 10.343-11.734 17.228-22.076 15.378-10.343-1.85-17.227-11.734-15.378-22.076-1.85 10.343-11.733 17.227-22.076 15.378-10.343-1.85-17.227-11.734-15.378-22.076l-214.444-124.958c-35.218-20.521-44.777-67.101-20.488-99.834l32.296-43.524c1.781-2.401 1.967-5.63.472-8.219l-75.206-130.26c-2.887-5 .722-11.25 6.495-11.25h10.67l76.991 133.351c4.025 6.971 3.525 15.667-1.271 22.132l-31.629 42.625c-19.762 26.224-11.985 63.539 16.67 79.979l209.477 122.063c3.076 1.792 4.967 5.084 4.967 8.643v2.251c0 11.864 10.758 17.842 22.454 13.698 1.997-11.163-.196-21.427-6.074-30.14-.287-.426-.139-1.577.38-1.896 6.998-4.307 16.183-.693 18.351 7.232 1.594 5.828 2.343 12.002 2.343 17.804 0 11.865 10.758 17.843 22.454 13.699zm102.608-6.32c-1.754-1.013-11.993-6.924-11.993-6.924-.509-5.963-1.514-11.854-2.948-17.448-1.961-7.652-10.542-11.334-17.44-7.854-.534.269-.777.894-.553 1.447 4.924 12.157 7.289 25.484 6.546 39.198.001.003.002.006.004.01.193.112 8.595 4.962 11.383 6.572 17.235 9.95 39.398 3.63 48.704-14.195-.018-.018-.002-.002-.02-.02-10.268 5.295-22.934 5.42-33.683-.786zm-49.282 8.085c.907-10.967-.393-22.313-3.154-32.634-1.964-7.341-10.029-10.954-16.762-8.033-.179.077-.423.201-.67.331-.566.298-.796.981-.536 1.565 5.878 13.258 7.995 28.354 5.25 43.705-11.696 4.143-21.892-1.812-21.466-13.699.287-8-.82-16.401-3.026-24.28-2.104-7.518-10.646-11.013-17.453-7.507-.282.145-.836.472-.836.472-.269.165-.363.507-.22.788 5.695 11.174 7.924 24.23 5.546 37.527-1.85 10.343 5.035 20.227 15.378 22.076 10.343 1.85 20.226-5.035 22.076-15.377-1.85 10.342 5.035 20.226 15.378 22.076s20.226-5.035 22.076-15.378c-11.696 4.144-22.574.381-21.581-11.632z" fill="#ebae9d" data-original="#b46e5a" style="" class=""/><path d="m27.5 448.731c-4.142 0-7.5-3.357-7.5-7.5v-22.5h-12.5c-4.142 0-7.5-3.357-7.5-7.5s3.358-7.5 7.5-7.5h12.5v-22.5c0-4.143 3.358-7.5 7.5-7.5s7.5 3.357 7.5 7.5v22.5h12.5c4.142 0 7.5 3.357 7.5 7.5s-3.358 7.5-7.5 7.5h-12.5v22.5c0 4.142-3.358 7.5-7.5 7.5z" fill="#6de5cf" data-original="#d3effd" style="" class=""/><path d="m306.364 355.951c-4.143 0-7.5-3.357-7.5-7.5v-22.5h-12.5c-4.143 0-7.5-3.357-7.5-7.5s3.357-7.5 7.5-7.5h12.5v-22.5c0-4.143 3.357-7.5 7.5-7.5s7.5 3.357 7.5 7.5v22.5h12.5c4.143 0 7.5 3.357 7.5 7.5s-3.357 7.5-7.5 7.5h-12.5v22.5c0 4.143-3.357 7.5-7.5 7.5z" fill="#f4cdb8" data-original="#ebae9d" style="" class=""/><path d="m484.5 285.657c-4.143 0-7.5-3.357-7.5-7.5v-22.5h-12.5c-4.143 0-7.5-3.357-7.5-7.5s3.357-7.5 7.5-7.5h12.5v-22.5c0-4.143 3.357-7.5 7.5-7.5s7.5 3.357 7.5 7.5v22.5h12.5c4.143 0 7.5 3.357 7.5 7.5s-3.357 7.5-7.5 7.5h-12.5v22.5c0 4.142-3.357 7.5-7.5 7.5z" fill="#6de5cf" data-original="#d3effd" style="" class=""/><path d="m146.573 243.995c-1.282 0-2.582-.329-3.769-1.021-12.264-7.146-20.935-19.22-23.789-33.124-2.854-13.905.361-28.418 8.819-39.817 2.468-3.326 7.166-4.021 10.492-1.555 3.326 2.469 4.022 7.166 1.554 10.492-5.919 7.978-8.168 18.134-6.171 27.864s8.064 18.179 16.646 23.179c3.579 2.086 4.79 6.678 2.704 10.256-1.392 2.392-3.905 3.726-6.486 3.726z" fill="#ebae9d" data-original="#b46e5a" style="" class=""/><g fill="#d3effd"><circle cx="120.807" cy="397.3" r="15" fill="#6de5cf" data-original="#d3effd" style="" class=""/><circle cx="329.48" cy="131.896" r="15" fill="#6de5cf" data-original="#d3effd" style="" class=""/></g></g></g></svg>
