<?xml version="1.0"?>
<svg xmlns="http://www.w3.org/2000/svg" xmlns:xlink="http://www.w3.org/1999/xlink" xmlns:svgjs="http://svgjs.com/svgjs" version="1.1" width="512" height="512" x="0" y="0" viewBox="0 0 512.084 512.084" style="enable-background:new 0 0 512 512" xml:space="preserve" class=""><g><g xmlns="http://www.w3.org/2000/svg"><g><path d="m481.807 443.168c-1.732-27.656-11.213-54.065-27.417-76.374-3.245-4.468-9.498-5.459-13.968-2.214-4.468 3.246-5.459 9.499-2.214 13.968 13.704 18.867 21.831 41.147 23.545 64.514l-29.171 3.463c-8.578 1.018-15.28 7.72-16.298 16.298l-3.463 29.172c-30.06-2.209-58.297-15.128-79.64-36.471-16.833-16.833-28.493-37.94-33.719-61.039-4.716-20.844-4.067-42.496 1.845-62.939 22.73-6.587 46.667-6.658 69.546-.158 5.311 1.509 10.843-1.574 12.352-6.887 1.509-5.312-1.574-10.843-6.887-12.352-28.386-8.063-58.18-7.398-86.159 1.925-2.986.996-5.33 3.339-6.326 6.326-8.431 25.302-9.772 52.446-3.878 78.498 6.061 26.788 19.576 51.259 39.084 70.768 25.111 25.111 58.455 40.163 93.889 42.382.392.024.782.037 1.169.037 9.332 0 17.313-7.017 18.431-16.436l3.489-29.391 29.39-3.489c9.811-1.165 17.015-9.775 16.4-19.601z" fill="#ff7f50" data-original="#000000" style="" class=""/><path d="m194.393 192.308c-21.667-7.219-44.911-8.368-67.22-3.321-22.941 5.19-43.898 16.764-60.604 33.47-21.504 21.504-34.394 50.059-36.294 80.403-.571 9.127 6.117 17.124 15.228 18.205l23.652 2.808 2.807 23.652c1.039 8.747 8.451 15.262 17.119 15.261.36 0 .723-.011 1.086-.034 30.344-1.9 58.898-14.79 80.403-36.294 16.706-16.706 28.28-37.662 33.47-60.604 5.047-22.308 3.899-45.552-3.321-67.22-.996-2.986-3.34-5.33-6.326-6.326zm-125.491 129.449.001.014c0-.005 0-.01-.001-.014zm87.525-9.441c-17.442 17.442-40.404 28.135-64.911 30.281l-2.753-23.198c-.946-7.965-7.169-14.188-15.134-15.134l-23.198-2.754c2.147-24.505 12.839-47.47 30.28-64.911 27.066-27.067 65.938-37.109 102.521-26.804 10.305 36.58.262 75.454-26.805 102.52z" fill="#ff7f50" data-original="#000000" style="" class=""/><path d="m387.787 166.582c.354.022.707.033 1.058.033 8.426 0 15.633-6.333 16.643-14.836l2.561-21.574 21.574-2.562c8.858-1.051 15.36-8.826 14.804-17.7-1.785-28.502-13.892-55.323-34.091-75.522-31.612-31.612-77.618-42.462-120.064-28.319-2.987.996-5.331 3.339-6.326 6.326-14.144 42.446-3.292 88.452 28.318 120.063 20.199 20.199 47.021 32.306 75.523 34.091zm-86.346-142.985c33.832-9.396 69.729-.056 94.752 24.966 16.029 16.028 25.914 37.086 28.033 59.581l-21.029 2.497c-7.744.919-13.794 6.969-14.713 14.713l-2.496 21.029c-22.496-2.119-43.552-12.003-59.581-28.033-25.022-25.023-34.362-60.922-24.966-94.753z" fill="#ff7f50" data-original="#000000" style="" class=""/><circle cx="414.223" cy="341.116" r="10" fill="#ff7f50" data-original="#000000" style="" class=""/></g></g></g></svg>
