<svg fill="#FF7F50" height="512pt" viewBox="-103 0 512 512" width="512pt" xmlns="http://www.w3.org/2000/svg"><path d="m268.375 248.5h-29.941406c4.707031-6.257812 7.503906-14.03125 7.503906-22.441406 0-.226563-.003906-.449219-.007812-.691406-1.144532-62.96875-5.878907-126.421876-14.082032-188.59375-2.769531-20.964844-20.84375-36.773438-42.050781-36.773438h-73.703125c-21.203125 0-39.28125 15.808594-42.046875 36.773438-4.191406 31.753906-7.503906 64.070312-9.855469 96.0625-.300781 4.128906 2.800782 7.726562 6.929688 8.027343 4.132812.304688 7.730468-2.800781 8.03125-6.929687 2.328125-31.703125 5.613281-63.730469 9.765625-95.195313 1.785156-13.535156 13.46875-23.738281 27.175781-23.738281h73.703125c13.710937 0 25.394531 10.203125 27.179687 23.738281 8.128907 61.609375 12.824219 124.492188 13.957032 186.882813l.003906.4375c0 12.375-10.097656 22.441406-22.507812 22.441406h-110.964844c-12.414063 0-22.511719-10.066406-22.511719-22.441406l.007813-.417969c.371093-20.574219 1.136718-41.402344 2.269531-61.90625.230469-4.136719-2.9375-7.675781-7.074219-7.902344-4.140625-.246093-7.671875 2.9375-7.902344 7.074219-1.144531 20.6875-1.914062 41.703125-2.292968 62.460938-.003907.230468-.007813.460937-.007813.691406 0 8.410156 2.796875 16.183594 7.507813 22.441406h-29.957032c-20.679687 0-37.503906 16.785156-37.503906 37.417969 0 .238281.00390625.472656.0078125.6875 1.1679685 64.417969 6.0976565 129.320312 14.6562495 192.910156 2.492188 18.519531 18.472657 32.484375 37.171876 32.484375h202.210937c18.695313 0 34.675781-13.964844 37.167969-32.484375.53125-3.9375 1.046875-7.878906 1.550781-11.824219.523437-4.109375-2.382813-7.867187-6.492187-8.390625-4.101563-.527343-7.863282 2.382813-8.386719 6.492188-.5 3.910156-1.011719 7.820312-1.535157 11.722656-1.496093 11.105469-11.085937 19.484375-22.304687 19.484375h-202.210937c-11.222657 0-20.8125-8.378906-22.308594-19.484375-9.148438-67.988281-14.015625-140.0625-14.527344-191.597656 0-12.359375 10.097656-22.417969 22.503906-22.417969h230.871094c12.175781 0 22.621094 9.789062 22.5 22.835938-.902344 49.9375-4.09375 100.339843-9.484375 149.800781-.449219 4.121093 2.523437 7.820312 6.644531 8.269531s7.816406-2.523438 8.269532-6.644531c5.4375-49.910157 8.65625-100.765625 9.570312-151.171875.003906-.226563.007812-.445313.007812-.671875-.003906-20.632813-16.828124-37.417969-37.507812-37.417969zm0 0"/><path d="m85.191406 452h135.5c19.339844 0 35.382813-14.503906 37.320313-33.738281 2.335937-23.238281 4.195312-46.863281 5.523437-70.21875 1.246094-21.894531-16.355468-39.542969-37.445312-39.542969h-146.300782c-21.042968 0-38.691406 17.605469-37.445312 39.542969 1.332031 23.351562 3.1875 46.976562 5.527344 70.21875 1.933594 19.234375 17.976562 33.738281 37.320312 33.738281zm-5.402344-128.5h146.300782c12.929687 0 23.203125 10.824219 22.46875 23.6875-1.316406 23.140625-3.160156 46.550781-5.472656 69.570312-1.160157 11.542969-10.789063 20.242188-22.394532 20.242188h-135.5c-11.605468 0-21.234375-8.699219-22.394531-20.238281-2.316406-23.027344-4.160156-46.433594-5.476563-69.570313-.730468-12.863281 9.53125-23.691406 22.46875-23.691406zm0 0"/><path d="m88.941406 397c4.140625 0 7.5-3.355469 7.5-7.5v-10c0-4.144531-3.359375-7.5-7.5-7.5-4.144531 0-7.5 3.355469-7.5 7.5v10c0 4.144531 3.355469 7.5 7.5 7.5zm0 0"/><path d="m216.941406 397c4.140625 0 7.5-3.355469 7.5-7.5v-10c0-4.144531-3.359375-7.5-7.5-7.5-4.144531 0-7.5 3.355469-7.5 7.5v10c0 4.144531 3.355469 7.5 7.5 7.5zm0 0"/><path d="m153.441406 405c9.6875 0 18.621094-5.601562 22.765625-14.265625 1.785157-3.738281.203125-8.214844-3.53125-10-3.738281-1.789063-8.214843-.207031-10 3.53125-3.644531 7.621094-14.820312 7.628906-18.46875 0-1.785156-3.738281-6.265625-5.320313-10.003906-3.53125-3.734375 1.785156-5.316406 6.261719-3.527344 10 4.140625 8.664063 13.078125 14.265625 22.765625 14.265625zm0 0"/></svg>