<svg fill="#FF7F50" id="Capa_1" enable-background="new 0 0 512 512" height="512" viewBox="0 0 512 512" width="512" xmlns="http://www.w3.org/2000/svg"><path d="m458.33 88.727c-31.847-29.257-77.33-44.721-131.53-44.721-14.404 0-29.048 1.942-43.372 5.672 3.252-5.377 7.216-11.112 12.036-16.989 7.005-8.541 5.76-21.142-2.78-28.147-8.54-7.004-21.142-5.761-28.147 2.78-10.609 12.934-18.041 25.357-23.236 36.083-18.642-19.945-46.466-43.399-88.054-43.399-43.688 0-67.116 16.03-87.786 30.174-14.825 10.145-27.63 18.906-48.178 21.724-7.371 1.01-13.573 6.029-16.096 13.029-2.524 6.999-.955 14.821 4.075 20.305 16.743 18.253 61.952 60.71 119.985 60.71 16.884 0 31.021-2.671 43.21-6.691-21.382 37.788-37.053 93.83-25.242 173.676 1.616 10.927 11.776 18.476 22.712 16.858 10.927-1.616 18.475-11.785 16.858-22.711-13.472-91.063 13.269-144.441 38.072-173.184 26.958-31.239 66.563-49.89 105.942-49.89 66.239 0 145.2 25.573 145.2 147.4 0 39.9-4.839 69.855-15.228 94.27-4.325 10.164.409 21.909 10.572 26.234 2.556 1.087 5.21 1.602 7.822 1.602 7.777 0 15.175-4.566 18.412-12.175 12.57-29.535 18.423-64.466 18.423-109.931 0-61.96-18.056-109.964-53.67-142.679zm-398.983-8.146c10.973-5.257 20.132-11.525 28.703-17.39 18.182-12.441 33.884-23.186 65.197-23.186 26.175 0 44.357 15.121 58.914 30.778-7.99 3.819-15.328 8.46-22.561 13.036-17.987 11.379-34.978 22.127-64.354 22.127-20.959.001-44.275-9.166-65.899-25.365zm366.615 318.363c6.434 8.979 4.371 21.473-4.607 27.907-14.047 10.065-30.294 20.03-49.672 30.464-7.624 4.105-16.726 8.686-26.428 11.527-46.735 13.687-79.719 38.752-80.046 39.004-3.601 2.764-7.912 4.147-12.22 4.147-4.347 0-8.69-1.408-12.3-4.226-.304-.236-33.28-25.596-80.357-41.865-7.035-2.431-13.668-5.502-19.228-8.186-45.8-22.112-141.104-68.126-141.104-214.51 0-23.493 2.646-45.915 7.864-66.644 2.695-10.711 13.561-17.208 24.277-14.513 10.711 2.697 17.209 13.566 14.512 24.277-4.414 17.54-6.653 36.677-6.653 56.88 0 121.279 74.177 157.092 118.495 178.489 4.743 2.29 9.831 4.65 14.901 6.402 36.092 12.473 64.513 29.401 79.726 39.516 15.456-9.99 44.339-26.454 80.891-37.158 6.136-1.797 12.616-5.079 18.704-8.358 17.862-9.618 32.692-18.699 45.339-27.761 8.979-6.432 21.473-4.37 27.906 4.608zm4.038-106.938c0 11.046-8.954 20-20 20s-20-8.954-20-20 8.954-20 20-20 20 8.954 20 20zm-68 77c-11.046 0-20-8.954-20-20s8.954-20 20-20 20 8.954 20 20-8.954 20-20 20z"/></svg>